<mxfile host="app.diagrams.net" modified="2021-09-06T07:13:47.385Z" agent="5.0 (X11; Linux x86_64) AppleWebKit/537.36 (KHTML, like Gecko) Chrome/92.0.4515.159 Safari/537.36" etag="TH9uE-aGb4DG16ZIw5BV" version="15.0.6" type="github">
  <diagram id="R2lEEEUBdFMjLlhIrx00" name="Page-1">
    <mxGraphModel dx="1350" dy="774" grid="1" gridSize="10" guides="1" tooltips="1" connect="1" arrows="1" fold="1" page="1" pageScale="1" pageWidth="850" pageHeight="1100" math="0" shadow="0" extFonts="Permanent Marker^https://fonts.googleapis.com/css?family=Permanent+Marker">
      <root>
        <mxCell id="0" />
        <mxCell id="1" parent="0" />
        <mxCell id="wEIdvjsblMiwRzusZgRY-7" value="" style="group" vertex="1" connectable="0" parent="1">
          <mxGeometry x="38" y="40" width="240" height="220" as="geometry" />
        </mxCell>
        <object label="Users" password="" id="C-vyLk0tnHw3VtMMgP7b-23">
          <mxCell style="shape=table;startSize=30;container=1;collapsible=1;childLayout=tableLayout;fixedRows=1;rowLines=0;fontStyle=1;align=center;resizeLast=1;" parent="wEIdvjsblMiwRzusZgRY-7" vertex="1">
            <mxGeometry width="240" height="220" as="geometry" />
          </mxCell>
        </object>
        <mxCell id="C-vyLk0tnHw3VtMMgP7b-24" value="" style="shape=partialRectangle;collapsible=0;dropTarget=0;pointerEvents=0;fillColor=none;points=[[0,0.5],[1,0.5]];portConstraint=eastwest;top=0;left=0;right=0;bottom=1;" parent="C-vyLk0tnHw3VtMMgP7b-23" vertex="1">
          <mxGeometry y="30" width="240" height="30" as="geometry" />
        </mxCell>
        <mxCell id="C-vyLk0tnHw3VtMMgP7b-25" value="PK" style="shape=partialRectangle;overflow=hidden;connectable=0;fillColor=none;top=0;left=0;bottom=0;right=0;fontStyle=1;" parent="C-vyLk0tnHw3VtMMgP7b-24" vertex="1">
          <mxGeometry width="30" height="30" as="geometry" />
        </mxCell>
        <mxCell id="C-vyLk0tnHw3VtMMgP7b-26" value="id int NOT NULL " style="shape=partialRectangle;overflow=hidden;connectable=0;fillColor=none;top=0;left=0;bottom=0;right=0;align=left;spacingLeft=6;fontStyle=5;" parent="C-vyLk0tnHw3VtMMgP7b-24" vertex="1">
          <mxGeometry x="30" width="210" height="30" as="geometry" />
        </mxCell>
        <mxCell id="C-vyLk0tnHw3VtMMgP7b-27" value="" style="shape=partialRectangle;collapsible=0;dropTarget=0;pointerEvents=0;fillColor=none;points=[[0,0.5],[1,0.5]];portConstraint=eastwest;top=0;left=0;right=0;bottom=0;" parent="C-vyLk0tnHw3VtMMgP7b-23" vertex="1">
          <mxGeometry y="60" width="240" height="30" as="geometry" />
        </mxCell>
        <mxCell id="C-vyLk0tnHw3VtMMgP7b-28" value="" style="shape=partialRectangle;overflow=hidden;connectable=0;fillColor=none;top=0;left=0;bottom=0;right=0;" parent="C-vyLk0tnHw3VtMMgP7b-27" vertex="1">
          <mxGeometry width="30" height="30" as="geometry" />
        </mxCell>
        <mxCell id="C-vyLk0tnHw3VtMMgP7b-29" value="login varchar NOT NULL" style="shape=partialRectangle;overflow=hidden;connectable=0;fillColor=none;top=0;left=0;bottom=0;right=0;align=left;spacingLeft=6;" parent="C-vyLk0tnHw3VtMMgP7b-27" vertex="1">
          <mxGeometry x="30" width="210" height="30" as="geometry" />
        </mxCell>
        <mxCell id="wEIdvjsblMiwRzusZgRY-3" value="password varchar NOT NULL" style="shape=partialRectangle;overflow=hidden;connectable=0;fillColor=none;top=0;left=0;bottom=0;right=0;align=left;spacingLeft=6;" vertex="1" parent="wEIdvjsblMiwRzusZgRY-7">
          <mxGeometry x="28.799999999999997" y="90" width="211.2" height="30" as="geometry" />
        </mxCell>
        <mxCell id="wEIdvjsblMiwRzusZgRY-4" value="name varchar NOT NULL" style="shape=partialRectangle;overflow=hidden;connectable=0;fillColor=none;top=0;left=0;bottom=0;right=0;align=left;spacingLeft=6;" vertex="1" parent="wEIdvjsblMiwRzusZgRY-7">
          <mxGeometry x="28.799999999999997" y="120" width="211.2" height="30" as="geometry" />
        </mxCell>
        <mxCell id="wEIdvjsblMiwRzusZgRY-5" value="created_at datetime(6) NOT NULL" style="shape=partialRectangle;overflow=hidden;connectable=0;fillColor=none;top=0;left=0;bottom=0;right=0;align=left;spacingLeft=6;" vertex="1" parent="wEIdvjsblMiwRzusZgRY-7">
          <mxGeometry x="28.799999999999997" y="150" width="211.2" height="30" as="geometry" />
        </mxCell>
        <mxCell id="wEIdvjsblMiwRzusZgRY-6" value="updated_at datetime(6) NOT NULL" style="shape=partialRectangle;overflow=hidden;connectable=0;fillColor=none;top=0;left=0;bottom=0;right=0;align=left;spacingLeft=6;" vertex="1" parent="wEIdvjsblMiwRzusZgRY-7">
          <mxGeometry x="28.799999999999997" y="180" width="211.2" height="30" as="geometry" />
        </mxCell>
        <mxCell id="wEIdvjsblMiwRzusZgRY-21" value="" style="group" vertex="1" connectable="0" parent="1">
          <mxGeometry x="520" y="317" width="240" height="220" as="geometry" />
        </mxCell>
        <object label="Tests" password="" id="wEIdvjsblMiwRzusZgRY-22">
          <mxCell style="shape=table;startSize=30;container=1;collapsible=1;childLayout=tableLayout;fixedRows=1;rowLines=0;fontStyle=1;align=center;resizeLast=1;" vertex="1" parent="wEIdvjsblMiwRzusZgRY-21">
            <mxGeometry width="240" height="220" as="geometry" />
          </mxCell>
        </object>
        <mxCell id="wEIdvjsblMiwRzusZgRY-23" value="" style="shape=partialRectangle;collapsible=0;dropTarget=0;pointerEvents=0;fillColor=none;points=[[0,0.5],[1,0.5]];portConstraint=eastwest;top=0;left=0;right=0;bottom=1;" vertex="1" parent="wEIdvjsblMiwRzusZgRY-22">
          <mxGeometry y="30" width="240" height="30" as="geometry" />
        </mxCell>
        <mxCell id="wEIdvjsblMiwRzusZgRY-24" value="PK" style="shape=partialRectangle;overflow=hidden;connectable=0;fillColor=none;top=0;left=0;bottom=0;right=0;fontStyle=1;" vertex="1" parent="wEIdvjsblMiwRzusZgRY-23">
          <mxGeometry width="30" height="30" as="geometry" />
        </mxCell>
        <mxCell id="wEIdvjsblMiwRzusZgRY-25" value="id int NOT NULL " style="shape=partialRectangle;overflow=hidden;connectable=0;fillColor=none;top=0;left=0;bottom=0;right=0;align=left;spacingLeft=6;fontStyle=5;" vertex="1" parent="wEIdvjsblMiwRzusZgRY-23">
          <mxGeometry x="30" width="210" height="30" as="geometry" />
        </mxCell>
        <mxCell id="wEIdvjsblMiwRzusZgRY-26" value="" style="shape=partialRectangle;collapsible=0;dropTarget=0;pointerEvents=0;fillColor=none;points=[[0,0.5],[1,0.5]];portConstraint=eastwest;top=0;left=0;right=0;bottom=0;" vertex="1" parent="wEIdvjsblMiwRzusZgRY-22">
          <mxGeometry y="60" width="240" height="30" as="geometry" />
        </mxCell>
        <mxCell id="wEIdvjsblMiwRzusZgRY-27" value="" style="shape=partialRectangle;overflow=hidden;connectable=0;fillColor=none;top=0;left=0;bottom=0;right=0;" vertex="1" parent="wEIdvjsblMiwRzusZgRY-26">
          <mxGeometry width="30" height="30" as="geometry" />
        </mxCell>
        <mxCell id="wEIdvjsblMiwRzusZgRY-28" value="title varchar NOT NULL" style="shape=partialRectangle;overflow=hidden;connectable=0;fillColor=none;top=0;left=0;bottom=0;right=0;align=left;spacingLeft=6;" vertex="1" parent="wEIdvjsblMiwRzusZgRY-26">
          <mxGeometry x="30" width="210" height="30" as="geometry" />
        </mxCell>
        <mxCell id="wEIdvjsblMiwRzusZgRY-29" value="level integer DEFAULT: 0" style="shape=partialRectangle;overflow=hidden;connectable=0;fillColor=none;top=0;left=0;bottom=0;right=0;align=left;spacingLeft=6;" vertex="1" parent="wEIdvjsblMiwRzusZgRY-21">
          <mxGeometry x="28.799999999999997" y="90" width="211.2" height="30" as="geometry" />
        </mxCell>
        <mxCell id="wEIdvjsblMiwRzusZgRY-30" value="category_id int NOT NULL" style="shape=partialRectangle;overflow=hidden;connectable=0;fillColor=none;top=0;left=0;bottom=0;right=0;align=left;spacingLeft=6;" vertex="1" parent="wEIdvjsblMiwRzusZgRY-21">
          <mxGeometry x="28.799999999999997" y="120" width="211.2" height="30" as="geometry" />
        </mxCell>
        <mxCell id="wEIdvjsblMiwRzusZgRY-31" value="created_at datetime(6) NOT NULL" style="shape=partialRectangle;overflow=hidden;connectable=0;fillColor=none;top=0;left=0;bottom=0;right=0;align=left;spacingLeft=6;" vertex="1" parent="wEIdvjsblMiwRzusZgRY-21">
          <mxGeometry x="28.799999999999997" y="150" width="211.2" height="30" as="geometry" />
        </mxCell>
        <mxCell id="wEIdvjsblMiwRzusZgRY-32" value="updated_at datetime(6) NOT NULL" style="shape=partialRectangle;overflow=hidden;connectable=0;fillColor=none;top=0;left=0;bottom=0;right=0;align=left;spacingLeft=6;" vertex="1" parent="wEIdvjsblMiwRzusZgRY-21">
          <mxGeometry x="28.799999999999997" y="180" width="211.2" height="30" as="geometry" />
        </mxCell>
        <mxCell id="wEIdvjsblMiwRzusZgRY-33" value="FK" style="shape=partialRectangle;overflow=hidden;connectable=0;fillColor=none;top=0;left=0;bottom=0;right=0;fontStyle=1;" vertex="1" parent="wEIdvjsblMiwRzusZgRY-21">
          <mxGeometry y="120" width="28.799999999999997" height="30" as="geometry" />
        </mxCell>
        <mxCell id="wEIdvjsblMiwRzusZgRY-34" value="" style="group" vertex="1" connectable="0" parent="1">
          <mxGeometry x="520" y="40" width="240" height="160" as="geometry" />
        </mxCell>
        <object label="Categories" password="" id="wEIdvjsblMiwRzusZgRY-35">
          <mxCell style="shape=table;startSize=30;container=1;collapsible=1;childLayout=tableLayout;fixedRows=1;rowLines=0;fontStyle=1;align=center;resizeLast=1;" vertex="1" parent="wEIdvjsblMiwRzusZgRY-34">
            <mxGeometry width="240" height="160" as="geometry" />
          </mxCell>
        </object>
        <mxCell id="wEIdvjsblMiwRzusZgRY-36" value="" style="shape=partialRectangle;collapsible=0;dropTarget=0;pointerEvents=0;fillColor=none;points=[[0,0.5],[1,0.5]];portConstraint=eastwest;top=0;left=0;right=0;bottom=1;" vertex="1" parent="wEIdvjsblMiwRzusZgRY-35">
          <mxGeometry y="30" width="240" height="30" as="geometry" />
        </mxCell>
        <mxCell id="wEIdvjsblMiwRzusZgRY-37" value="PK" style="shape=partialRectangle;overflow=hidden;connectable=0;fillColor=none;top=0;left=0;bottom=0;right=0;fontStyle=1;" vertex="1" parent="wEIdvjsblMiwRzusZgRY-36">
          <mxGeometry width="30" height="30" as="geometry" />
        </mxCell>
        <mxCell id="wEIdvjsblMiwRzusZgRY-38" value="id int NOT NULL " style="shape=partialRectangle;overflow=hidden;connectable=0;fillColor=none;top=0;left=0;bottom=0;right=0;align=left;spacingLeft=6;fontStyle=5;" vertex="1" parent="wEIdvjsblMiwRzusZgRY-36">
          <mxGeometry x="30" width="210" height="30" as="geometry" />
        </mxCell>
        <mxCell id="wEIdvjsblMiwRzusZgRY-39" value="" style="shape=partialRectangle;collapsible=0;dropTarget=0;pointerEvents=0;fillColor=none;points=[[0,0.5],[1,0.5]];portConstraint=eastwest;top=0;left=0;right=0;bottom=0;" vertex="1" parent="wEIdvjsblMiwRzusZgRY-35">
          <mxGeometry y="60" width="240" height="30" as="geometry" />
        </mxCell>
        <mxCell id="wEIdvjsblMiwRzusZgRY-40" value="" style="shape=partialRectangle;overflow=hidden;connectable=0;fillColor=none;top=0;left=0;bottom=0;right=0;" vertex="1" parent="wEIdvjsblMiwRzusZgRY-39">
          <mxGeometry width="30" height="30" as="geometry" />
        </mxCell>
        <mxCell id="wEIdvjsblMiwRzusZgRY-41" value="title varchar NOT NULL" style="shape=partialRectangle;overflow=hidden;connectable=0;fillColor=none;top=0;left=0;bottom=0;right=0;align=left;spacingLeft=6;" vertex="1" parent="wEIdvjsblMiwRzusZgRY-39">
          <mxGeometry x="30" width="210" height="30" as="geometry" />
        </mxCell>
        <mxCell id="wEIdvjsblMiwRzusZgRY-44" value="created_at datetime(6) NOT NULL" style="shape=partialRectangle;overflow=hidden;connectable=0;fillColor=none;top=0;left=0;bottom=0;right=0;align=left;spacingLeft=6;" vertex="1" parent="wEIdvjsblMiwRzusZgRY-34">
          <mxGeometry x="28.799999999999994" y="120.00454545454545" width="211.2" height="21.81818181818182" as="geometry" />
        </mxCell>
        <mxCell id="wEIdvjsblMiwRzusZgRY-45" value="updated_at datetime(6) NOT NULL" style="shape=partialRectangle;overflow=hidden;connectable=0;fillColor=none;top=0;left=0;bottom=0;right=0;align=left;spacingLeft=6;" vertex="1" parent="wEIdvjsblMiwRzusZgRY-34">
          <mxGeometry x="28.799999999999994" y="90.00272727272728" width="211.2" height="21.81818181818182" as="geometry" />
        </mxCell>
        <mxCell id="wEIdvjsblMiwRzusZgRY-47" value="" style="group" vertex="1" connectable="0" parent="1">
          <mxGeometry x="520" y="640" width="240" height="220" as="geometry" />
        </mxCell>
        <object label="Questions" password="" id="wEIdvjsblMiwRzusZgRY-48">
          <mxCell style="shape=table;startSize=30;container=1;collapsible=1;childLayout=tableLayout;fixedRows=1;rowLines=0;fontStyle=1;align=center;resizeLast=1;" vertex="1" parent="wEIdvjsblMiwRzusZgRY-47">
            <mxGeometry width="240" height="180" as="geometry" />
          </mxCell>
        </object>
        <mxCell id="wEIdvjsblMiwRzusZgRY-49" value="" style="shape=partialRectangle;collapsible=0;dropTarget=0;pointerEvents=0;fillColor=none;points=[[0,0.5],[1,0.5]];portConstraint=eastwest;top=0;left=0;right=0;bottom=1;" vertex="1" parent="wEIdvjsblMiwRzusZgRY-48">
          <mxGeometry y="30" width="240" height="30" as="geometry" />
        </mxCell>
        <mxCell id="wEIdvjsblMiwRzusZgRY-50" value="PK" style="shape=partialRectangle;overflow=hidden;connectable=0;fillColor=none;top=0;left=0;bottom=0;right=0;fontStyle=1;" vertex="1" parent="wEIdvjsblMiwRzusZgRY-49">
          <mxGeometry width="30" height="30" as="geometry" />
        </mxCell>
        <mxCell id="wEIdvjsblMiwRzusZgRY-51" value="id int NOT NULL " style="shape=partialRectangle;overflow=hidden;connectable=0;fillColor=none;top=0;left=0;bottom=0;right=0;align=left;spacingLeft=6;fontStyle=5;" vertex="1" parent="wEIdvjsblMiwRzusZgRY-49">
          <mxGeometry x="30" width="210" height="30" as="geometry" />
        </mxCell>
        <mxCell id="wEIdvjsblMiwRzusZgRY-52" value="" style="shape=partialRectangle;collapsible=0;dropTarget=0;pointerEvents=0;fillColor=none;points=[[0,0.5],[1,0.5]];portConstraint=eastwest;top=0;left=0;right=0;bottom=0;" vertex="1" parent="wEIdvjsblMiwRzusZgRY-48">
          <mxGeometry y="60" width="240" height="30" as="geometry" />
        </mxCell>
        <mxCell id="wEIdvjsblMiwRzusZgRY-53" value="" style="shape=partialRectangle;overflow=hidden;connectable=0;fillColor=none;top=0;left=0;bottom=0;right=0;" vertex="1" parent="wEIdvjsblMiwRzusZgRY-52">
          <mxGeometry width="30" height="30" as="geometry" />
        </mxCell>
        <mxCell id="wEIdvjsblMiwRzusZgRY-54" value="body text NOT NULL" style="shape=partialRectangle;overflow=hidden;connectable=0;fillColor=none;top=0;left=0;bottom=0;right=0;align=left;spacingLeft=6;" vertex="1" parent="wEIdvjsblMiwRzusZgRY-52">
          <mxGeometry x="30" width="210" height="30" as="geometry" />
        </mxCell>
        <mxCell id="wEIdvjsblMiwRzusZgRY-56" value="test_id int NOT NULL" style="shape=partialRectangle;overflow=hidden;connectable=0;fillColor=none;top=0;left=0;bottom=0;right=0;align=left;spacingLeft=6;" vertex="1" parent="wEIdvjsblMiwRzusZgRY-47">
          <mxGeometry x="28.799999999999997" y="90" width="211.2" height="30" as="geometry" />
        </mxCell>
        <mxCell id="wEIdvjsblMiwRzusZgRY-57" value="created_at datetime(6) NOT NULL" style="shape=partialRectangle;overflow=hidden;connectable=0;fillColor=none;top=0;left=0;bottom=0;right=0;align=left;spacingLeft=6;" vertex="1" parent="wEIdvjsblMiwRzusZgRY-47">
          <mxGeometry x="28.799999999999997" y="120" width="211.2" height="30" as="geometry" />
        </mxCell>
        <mxCell id="wEIdvjsblMiwRzusZgRY-58" value="updated_at datetime(6) NOT NULL" style="shape=partialRectangle;overflow=hidden;connectable=0;fillColor=none;top=0;left=0;bottom=0;right=0;align=left;spacingLeft=6;" vertex="1" parent="wEIdvjsblMiwRzusZgRY-47">
          <mxGeometry x="28.799999999999997" y="150" width="211.2" height="30" as="geometry" />
        </mxCell>
        <mxCell id="wEIdvjsblMiwRzusZgRY-59" value="FK" style="shape=partialRectangle;overflow=hidden;connectable=0;fillColor=none;top=0;left=0;bottom=0;right=0;fontStyle=1;" vertex="1" parent="wEIdvjsblMiwRzusZgRY-47">
          <mxGeometry y="91" width="28.799999999999997" height="30" as="geometry" />
        </mxCell>
        <mxCell id="wEIdvjsblMiwRzusZgRY-62" value="" style="group" vertex="1" connectable="0" parent="1">
          <mxGeometry x="40" y="640" width="238" height="290" as="geometry" />
        </mxCell>
        <object label="Answers" password="" id="wEIdvjsblMiwRzusZgRY-63">
          <mxCell style="shape=table;startSize=30;container=1;collapsible=1;childLayout=tableLayout;fixedRows=1;rowLines=0;fontStyle=1;align=center;resizeLast=1;" vertex="1" parent="wEIdvjsblMiwRzusZgRY-62">
            <mxGeometry width="238" height="237.27272727272728" as="geometry" />
          </mxCell>
        </object>
        <mxCell id="wEIdvjsblMiwRzusZgRY-64" value="" style="shape=partialRectangle;collapsible=0;dropTarget=0;pointerEvents=0;fillColor=none;points=[[0,0.5],[1,0.5]];portConstraint=eastwest;top=0;left=0;right=0;bottom=1;" vertex="1" parent="wEIdvjsblMiwRzusZgRY-63">
          <mxGeometry y="30" width="238" height="30" as="geometry" />
        </mxCell>
        <mxCell id="wEIdvjsblMiwRzusZgRY-65" value="PK" style="shape=partialRectangle;overflow=hidden;connectable=0;fillColor=none;top=0;left=0;bottom=0;right=0;fontStyle=1;" vertex="1" parent="wEIdvjsblMiwRzusZgRY-64">
          <mxGeometry width="30" height="30" as="geometry" />
        </mxCell>
        <mxCell id="wEIdvjsblMiwRzusZgRY-66" value="id int NOT NULL " style="shape=partialRectangle;overflow=hidden;connectable=0;fillColor=none;top=0;left=0;bottom=0;right=0;align=left;spacingLeft=6;fontStyle=5;" vertex="1" parent="wEIdvjsblMiwRzusZgRY-64">
          <mxGeometry x="30" width="208" height="30" as="geometry" />
        </mxCell>
        <mxCell id="wEIdvjsblMiwRzusZgRY-67" value="" style="shape=partialRectangle;collapsible=0;dropTarget=0;pointerEvents=0;fillColor=none;points=[[0,0.5],[1,0.5]];portConstraint=eastwest;top=0;left=0;right=0;bottom=0;" vertex="1" parent="wEIdvjsblMiwRzusZgRY-63">
          <mxGeometry y="60" width="238" height="30" as="geometry" />
        </mxCell>
        <mxCell id="wEIdvjsblMiwRzusZgRY-68" value="" style="shape=partialRectangle;overflow=hidden;connectable=0;fillColor=none;top=0;left=0;bottom=0;right=0;" vertex="1" parent="wEIdvjsblMiwRzusZgRY-67">
          <mxGeometry width="30" height="30" as="geometry" />
        </mxCell>
        <mxCell id="wEIdvjsblMiwRzusZgRY-69" value="body text NOT NULL" style="shape=partialRectangle;overflow=hidden;connectable=0;fillColor=none;top=0;left=0;bottom=0;right=0;align=left;spacingLeft=6;" vertex="1" parent="wEIdvjsblMiwRzusZgRY-67">
          <mxGeometry x="30" width="208" height="30" as="geometry" />
        </mxCell>
        <mxCell id="wEIdvjsblMiwRzusZgRY-70" value="quection_id int NOT NULL" style="shape=partialRectangle;overflow=hidden;connectable=0;fillColor=none;top=0;left=0;bottom=0;right=0;align=left;spacingLeft=6;" vertex="1" parent="wEIdvjsblMiwRzusZgRY-62">
          <mxGeometry x="28.559999999999995" y="120.22636363636364" width="209.44" height="39.545454545454554" as="geometry" />
        </mxCell>
        <mxCell id="wEIdvjsblMiwRzusZgRY-71" value="created_at datetime(6) NOT NULL" style="shape=partialRectangle;overflow=hidden;connectable=0;fillColor=none;top=0;left=0;bottom=0;right=0;align=left;spacingLeft=6;" vertex="1" parent="wEIdvjsblMiwRzusZgRY-62">
          <mxGeometry x="28.559999999999995" y="158.18181818181822" width="209.44" height="39.545454545454554" as="geometry" />
        </mxCell>
        <mxCell id="wEIdvjsblMiwRzusZgRY-72" value="updated_at datetime(6) NOT NULL" style="shape=partialRectangle;overflow=hidden;connectable=0;fillColor=none;top=0;left=0;bottom=0;right=0;align=left;spacingLeft=6;" vertex="1" parent="wEIdvjsblMiwRzusZgRY-62">
          <mxGeometry x="28.559999999999995" y="197.72727272727275" width="209.44" height="39.545454545454554" as="geometry" />
        </mxCell>
        <mxCell id="wEIdvjsblMiwRzusZgRY-73" value="FK" style="shape=partialRectangle;overflow=hidden;connectable=0;fillColor=none;top=0;left=0;bottom=0;right=0;fontStyle=1;" vertex="1" parent="wEIdvjsblMiwRzusZgRY-62">
          <mxGeometry y="121.95454545454547" width="28.559999999999995" height="39.545454545454554" as="geometry" />
        </mxCell>
        <mxCell id="wEIdvjsblMiwRzusZgRY-74" value="correct boolean NOT NULL" style="shape=partialRectangle;overflow=hidden;connectable=0;fillColor=none;top=0;left=0;bottom=0;right=0;align=left;spacingLeft=6;" vertex="1" parent="wEIdvjsblMiwRzusZgRY-62">
          <mxGeometry x="28.559999999999974" y="90.00454545454545" width="209.44" height="36.81818181818182" as="geometry" />
        </mxCell>
        <mxCell id="wEIdvjsblMiwRzusZgRY-93" value="" style="group" vertex="1" connectable="0" parent="1">
          <mxGeometry x="38" y="322" width="242" height="220" as="geometry" />
        </mxCell>
        <mxCell id="wEIdvjsblMiwRzusZgRY-76" value="" style="group" vertex="1" connectable="0" parent="wEIdvjsblMiwRzusZgRY-93">
          <mxGeometry width="242" height="220" as="geometry" />
        </mxCell>
        <object label="TestsUsers" password="" id="wEIdvjsblMiwRzusZgRY-77">
          <mxCell style="shape=table;startSize=30;container=1;collapsible=1;childLayout=tableLayout;fixedRows=1;rowLines=0;fontStyle=1;align=center;resizeLast=1;" vertex="1" parent="wEIdvjsblMiwRzusZgRY-76">
            <mxGeometry width="242" height="180" as="geometry" />
          </mxCell>
        </object>
        <mxCell id="wEIdvjsblMiwRzusZgRY-78" value="" style="shape=partialRectangle;collapsible=0;dropTarget=0;pointerEvents=0;fillColor=none;points=[[0,0.5],[1,0.5]];portConstraint=eastwest;top=0;left=0;right=0;bottom=1;" vertex="1" parent="wEIdvjsblMiwRzusZgRY-77">
          <mxGeometry y="30" width="242" height="30" as="geometry" />
        </mxCell>
        <mxCell id="wEIdvjsblMiwRzusZgRY-79" value="PK" style="shape=partialRectangle;overflow=hidden;connectable=0;fillColor=none;top=0;left=0;bottom=0;right=0;fontStyle=1;" vertex="1" parent="wEIdvjsblMiwRzusZgRY-78">
          <mxGeometry width="30" height="30" as="geometry" />
        </mxCell>
        <mxCell id="wEIdvjsblMiwRzusZgRY-80" value="id int NOT NULL " style="shape=partialRectangle;overflow=hidden;connectable=0;fillColor=none;top=0;left=0;bottom=0;right=0;align=left;spacingLeft=6;fontStyle=5;" vertex="1" parent="wEIdvjsblMiwRzusZgRY-78">
          <mxGeometry x="30" width="212" height="30" as="geometry" />
        </mxCell>
        <mxCell id="wEIdvjsblMiwRzusZgRY-81" value="" style="shape=partialRectangle;collapsible=0;dropTarget=0;pointerEvents=0;fillColor=none;points=[[0,0.5],[1,0.5]];portConstraint=eastwest;top=0;left=0;right=0;bottom=0;" vertex="1" parent="wEIdvjsblMiwRzusZgRY-77">
          <mxGeometry y="60" width="242" height="30" as="geometry" />
        </mxCell>
        <mxCell id="wEIdvjsblMiwRzusZgRY-82" value="" style="shape=partialRectangle;overflow=hidden;connectable=0;fillColor=none;top=0;left=0;bottom=0;right=0;" vertex="1" parent="wEIdvjsblMiwRzusZgRY-81">
          <mxGeometry width="30" height="30" as="geometry" />
        </mxCell>
        <mxCell id="wEIdvjsblMiwRzusZgRY-83" value="user_id int NOT NULL" style="shape=partialRectangle;overflow=hidden;connectable=0;fillColor=none;top=0;left=0;bottom=0;right=0;align=left;spacingLeft=6;" vertex="1" parent="wEIdvjsblMiwRzusZgRY-81">
          <mxGeometry x="30" width="212" height="30" as="geometry" />
        </mxCell>
        <mxCell id="wEIdvjsblMiwRzusZgRY-84" value="test_id int NOT NULL" style="shape=partialRectangle;overflow=hidden;connectable=0;fillColor=none;top=0;left=0;bottom=0;right=0;align=left;spacingLeft=6;" vertex="1" parent="wEIdvjsblMiwRzusZgRY-76">
          <mxGeometry x="29.039999999999996" y="90" width="212.96" height="30" as="geometry" />
        </mxCell>
        <mxCell id="wEIdvjsblMiwRzusZgRY-85" value="created_at datetime(6) NOT NULL" style="shape=partialRectangle;overflow=hidden;connectable=0;fillColor=none;top=0;left=0;bottom=0;right=0;align=left;spacingLeft=6;" vertex="1" parent="wEIdvjsblMiwRzusZgRY-76">
          <mxGeometry x="29.039999999999996" y="120" width="212.96" height="30" as="geometry" />
        </mxCell>
        <mxCell id="wEIdvjsblMiwRzusZgRY-86" value="updated_at datetime(6) NOT NULL" style="shape=partialRectangle;overflow=hidden;connectable=0;fillColor=none;top=0;left=0;bottom=0;right=0;align=left;spacingLeft=6;" vertex="1" parent="wEIdvjsblMiwRzusZgRY-76">
          <mxGeometry x="29.039999999999996" y="150" width="212.96" height="30" as="geometry" />
        </mxCell>
        <mxCell id="wEIdvjsblMiwRzusZgRY-87" value="FK" style="shape=partialRectangle;overflow=hidden;connectable=0;fillColor=none;top=0;left=0;bottom=0;right=0;fontStyle=1;" vertex="1" parent="wEIdvjsblMiwRzusZgRY-76">
          <mxGeometry y="91" width="29.039999999999996" height="30" as="geometry" />
        </mxCell>
        <mxCell id="wEIdvjsblMiwRzusZgRY-88" value="FK" style="shape=partialRectangle;overflow=hidden;connectable=0;fillColor=none;top=0;left=0;bottom=0;right=0;fontStyle=1;" vertex="1" parent="wEIdvjsblMiwRzusZgRY-93">
          <mxGeometry y="62" width="29.279999999999998" height="30" as="geometry" />
        </mxCell>
        <mxCell id="wEIdvjsblMiwRzusZgRY-97" value="" style="fontSize=12;html=1;endArrow=ERzeroToMany;startArrow=ERmandOne;exitX=0.5;exitY=1;exitDx=0;exitDy=0;" edge="1" parent="1" source="wEIdvjsblMiwRzusZgRY-35">
          <mxGeometry width="100" height="100" relative="1" as="geometry">
            <mxPoint x="639.66" y="227" as="sourcePoint" />
            <mxPoint x="639.66" y="317" as="targetPoint" />
          </mxGeometry>
        </mxCell>
        <mxCell id="wEIdvjsblMiwRzusZgRY-102" value="" style="edgeStyle=elbowEdgeStyle;fontSize=12;html=1;endArrow=ERoneToMany;startArrow=ERmandOne;exitX=0;exitY=0.079;exitDx=0;exitDy=0;exitPerimeter=0;" edge="1" parent="1" source="wEIdvjsblMiwRzusZgRY-48">
          <mxGeometry width="100" height="100" relative="1" as="geometry">
            <mxPoint x="517" y="740" as="sourcePoint" />
            <mxPoint x="280" y="654" as="targetPoint" />
          </mxGeometry>
        </mxCell>
        <mxCell id="wEIdvjsblMiwRzusZgRY-103" value="" style="edgeStyle=elbowEdgeStyle;fontSize=12;html=1;endArrow=ERzeroToMany;startArrow=ERmandOne;exitX=0.5;exitY=1;exitDx=0;exitDy=0;" edge="1" parent="1" source="C-vyLk0tnHw3VtMMgP7b-23">
          <mxGeometry width="100" height="100" relative="1" as="geometry">
            <mxPoint x="250" y="290" as="sourcePoint" />
            <mxPoint x="158" y="320" as="targetPoint" />
          </mxGeometry>
        </mxCell>
        <mxCell id="wEIdvjsblMiwRzusZgRY-104" value="" style="edgeStyle=elbowEdgeStyle;fontSize=12;html=1;endArrow=ERzeroToMany;startArrow=ERmandOne;exitX=0;exitY=0.104;exitDx=0;exitDy=0;exitPerimeter=0;" edge="1" parent="1">
          <mxGeometry width="100" height="100" relative="1" as="geometry">
            <mxPoint x="520" y="335.88" as="sourcePoint" />
            <mxPoint x="281" y="336" as="targetPoint" />
          </mxGeometry>
        </mxCell>
        <mxCell id="wEIdvjsblMiwRzusZgRY-106" value="" style="fontSize=12;html=1;endArrow=ERoneToMany;startArrow=ERmandOne;exitX=0.5;exitY=1;exitDx=0;exitDy=0;entryX=0.5;entryY=0;entryDx=0;entryDy=0;" edge="1" parent="1" source="wEIdvjsblMiwRzusZgRY-22" target="wEIdvjsblMiwRzusZgRY-48">
          <mxGeometry width="100" height="100" relative="1" as="geometry">
            <mxPoint x="620" y="570" as="sourcePoint" />
            <mxPoint x="670" y="610" as="targetPoint" />
          </mxGeometry>
        </mxCell>
      </root>
    </mxGraphModel>
  </diagram>
</mxfile>
